# xmcd
#
# Track frame offsets:
#	150
#	13301
#	31601
#	46597
#	65612
#	81063
#	95780
#	108622
#	122584
#	136110
#	151903
#	168524
#	177931
#
# Disc length: 2534 seconds
#
# Revision: 1
# Processed by: cddbd v1.5.2PL0 Copyright (c) Steve Scherf et al.
# Submitted via: audiograbber 1.83.01
#
DISCID=a009e40d
DTITLE=Austin And King - Austin And King
DYEAR=2000
DGENRE=Country
TTITLE0=Blue Bonnets
TTITLE1=Any Time, Any Place, Any Where
TTITLE2=She´ll Always Be In My Heart
TTITLE3=Here We Go Again
TTITLE4=Broke Your Love
TTITLE5=Angel Baby
TTITLE6=Blown Away
TTITLE7=A Shoes On
TTITLE8=Driving Me Out Of Her Mind
TTITLE9=Gone Away
TTITLE10=When I Gave You My Name
TTITLE11=Speak For Myself
TTITLE12=Good Love Doesen´t Come Easy
EXTD=
EXTT0=
EXTT1=
EXTT2=
EXTT3=
EXTT4=
EXTT5=
EXTT6=
EXTT7=
EXTT8=
EXTT9=
EXTT10=
EXTT11=
EXTT12=
PLAYORDER=
